<svg viewBox="0 0 140 54" fill="none" xmlns="http://www.w3.org/2000/svg">
<path d="M56.188 42.936C55.26 42.936 54.308 42.808 53.332 42.552C52.372 42.312 51.54 41.984 50.836 41.568L51.484 39.984C52.188 40.384 52.924 40.696 53.692 40.92C54.46 41.128 55.22 41.232 55.972 41.232C56.788 41.216 57.508 41.096 58.132 40.872C58.756 40.632 59.244 40.312 59.596 39.912C59.948 39.496 60.124 39.032 60.124 38.52C60.124 38.088 60.004 37.68 59.764 37.296C59.524 36.896 59.204 36.504 58.804 36.12C58.42 35.72 57.98 35.32 57.484 34.92C56.956 34.44 56.468 33.984 56.02 33.552C55.588 33.104 55.244 32.648 54.988 32.184C54.732 31.704 54.604 31.2 54.604 30.672C54.604 29.984 54.828 29.304 55.276 28.632C55.74 27.96 56.396 27.328 57.244 26.736C58.108 26.144 59.14 25.616 60.34 25.152L60.7 25.8H49.54V24.192H63.964V25.8C62.428 26.104 61.108 26.496 60.004 26.976C58.916 27.456 58.076 28 57.484 28.608C56.908 29.2 56.62 29.84 56.62 30.528C56.62 30.928 56.732 31.32 56.956 31.704C57.18 32.088 57.484 32.472 57.868 32.856C58.268 33.224 58.7 33.624 59.164 34.056C59.724 34.584 60.22 35.088 60.652 35.568C61.1 36.048 61.452 36.536 61.708 37.032C61.98 37.512 62.116 38.032 62.116 38.592C62.116 39.44 61.86 40.192 61.348 40.848C60.852 41.504 60.156 42.016 59.26 42.384C58.364 42.752 57.34 42.936 56.188 42.936ZM45.916 39.576C46.364 38.776 46.796 37.912 47.212 36.984C47.644 36.056 48.028 35.128 48.364 34.2C48.716 33.256 49.004 32.368 49.228 31.536L50.98 32.04C50.756 32.904 50.468 33.816 50.116 34.776C49.764 35.72 49.372 36.664 48.94 37.608C48.508 38.552 48.052 39.456 47.572 40.32L45.916 39.576ZM66.844 40.176C66.572 39.28 66.228 38.36 65.812 37.416C65.412 36.456 64.98 35.528 64.516 34.632C64.052 33.72 63.58 32.896 63.1 32.16L64.708 31.344C65.204 32.096 65.684 32.936 66.148 33.864C66.628 34.792 67.068 35.752 67.468 36.744C67.884 37.72 68.244 38.68 68.548 39.624L66.844 40.176ZM70.828 40.032V25.224H72.58V33.384H71.74C72.076 32.232 72.588 31.184 73.276 30.24C73.964 29.28 74.796 28.456 75.772 27.768C76.764 27.08 77.86 26.552 79.06 26.184C80.276 25.8 81.564 25.608 82.924 25.608C84.604 25.608 86.06 25.896 87.292 26.472C88.524 27.048 89.476 27.856 90.148 28.896C90.836 29.936 91.18 31.168 91.18 32.592C91.18 34.016 90.844 35.256 90.172 36.312C89.5 37.368 88.54 38.184 87.292 38.76C86.044 39.32 84.564 39.6 82.852 39.6C81.14 39.6 79.66 39.288 78.412 38.664C77.18 38.024 76.076 37.032 75.1 35.688L76.276 34.416C77.172 35.648 78.132 36.544 79.156 37.104C80.196 37.648 81.428 37.92 82.852 37.92C84.212 37.92 85.372 37.704 86.332 37.272C87.308 36.84 88.052 36.224 88.564 35.424C89.092 34.624 89.356 33.68 89.356 32.592C89.356 31.488 89.092 30.544 88.564 29.76C88.036 28.96 87.292 28.352 86.332 27.936C85.372 27.504 84.236 27.288 82.924 27.288C81.5 27.288 80.164 27.536 78.916 28.032C77.668 28.512 76.564 29.184 75.604 30.048C74.66 30.912 73.916 31.912 73.372 33.048C72.844 34.168 72.58 35.376 72.58 36.672V40.032H70.828ZM77.212 42.456C78.124 42.136 78.876 41.784 79.468 41.4C80.06 41 80.524 40.528 80.86 39.984C81.212 39.44 81.46 38.776 81.604 37.992C81.748 37.208 81.82 36.264 81.82 35.16V22.992H83.62V35.16C83.62 36.888 83.444 38.312 83.092 39.432C82.756 40.552 82.18 41.464 81.364 42.168C80.548 42.872 79.428 43.464 78.004 43.944L77.212 42.456ZM100.804 39.936V30.936V22.608H102.58V30.936V39.936H100.804ZM94.732 27.168V25.632H113.788V27.168H94.732ZM106.612 41.568C107.716 41.408 108.676 41.08 109.492 40.584C110.324 40.072 110.972 39.44 111.436 38.688C111.9 37.92 112.132 37.08 112.132 36.168C112.132 35.128 111.836 34.232 111.244 33.48C110.668 32.728 109.844 32.144 108.772 31.728C107.716 31.312 106.46 31.104 105.004 31.104C103.788 31.104 102.652 31.28 101.596 31.632C100.556 31.984 99.644 32.472 98.86 33.096C98.076 33.72 97.46 34.448 97.012 35.28C96.58 36.112 96.364 37.016 96.364 37.992C96.364 38.776 96.508 39.416 96.796 39.912C97.1 40.408 97.5 40.656 97.996 40.656C98.428 40.656 98.98 40.48 99.652 40.128C100.34 39.76 101.084 39.264 101.884 38.64C102.7 38 103.532 37.272 104.38 36.456C105.244 35.64 106.076 34.768 106.876 33.84C107.692 32.896 108.428 31.952 109.084 31.008L110.5 31.896C109.732 33.032 108.9 34.12 108.004 35.16C107.108 36.2 106.188 37.16 105.244 38.04C104.3 38.904 103.372 39.664 102.46 40.32C101.548 40.96 100.692 41.464 99.892 41.832C99.092 42.184 98.38 42.36 97.756 42.36C96.796 42.344 96.028 41.944 95.452 41.16C94.876 40.36 94.588 39.32 94.588 38.04C94.588 36.84 94.844 35.728 95.356 34.704C95.868 33.664 96.58 32.76 97.492 31.992C98.42 31.224 99.5 30.632 100.732 30.216C101.964 29.784 103.3 29.568 104.74 29.568C106.628 29.568 108.26 29.84 109.636 30.384C111.012 30.912 112.068 31.672 112.804 32.664C113.556 33.64 113.932 34.808 113.932 36.168C113.932 37.336 113.644 38.416 113.068 39.408C112.492 40.4 111.692 41.232 110.668 41.904C109.644 42.56 108.46 42.984 107.116 43.176L106.612 41.568ZM127.348 43.128C124.788 43.128 122.908 42.512 121.708 41.28C120.508 40.032 119.908 38.088 119.908 35.448V23.52H121.78V35.448C121.78 37.496 122.22 38.992 123.1 39.936C123.996 40.88 125.412 41.352 127.348 41.352C128.74 41.352 129.964 41.104 131.02 40.608C132.092 40.112 133.052 39.312 133.9 38.208C134.748 37.104 135.548 35.656 136.3 33.864L138.052 34.536C137.22 36.584 136.308 38.24 135.316 39.504C134.324 40.768 133.18 41.688 131.884 42.264C130.588 42.84 129.076 43.128 127.348 43.128Z" fill="#9BA9D0"/>
<path d="M55.212 41.696C54.3 41.696 53.38 41.568 52.452 41.312C51.524 41.072 50.7 40.736 49.98 40.304L50.412 39.32C51.116 39.736 51.868 40.056 52.668 40.28C53.468 40.504 54.276 40.616 55.092 40.616C56.02 40.616 56.836 40.488 57.54 40.232C58.244 39.96 58.796 39.6 59.196 39.152C59.612 38.688 59.82 38.168 59.82 37.592C59.82 37.096 59.684 36.64 59.412 36.224C59.14 35.792 58.788 35.376 58.356 34.976C57.924 34.56 57.452 34.144 56.94 33.728C56.412 33.264 55.916 32.816 55.452 32.384C54.988 31.936 54.612 31.472 54.324 30.992C54.036 30.512 53.892 30 53.892 29.456C53.892 28.72 54.148 28.008 54.66 27.32C55.188 26.632 55.924 26 56.868 25.424C57.812 24.848 58.94 24.36 60.252 23.96L60.54 24.368H48.732V23.336H62.772V24.368C61.204 24.672 59.844 25.08 58.692 25.592C57.556 26.088 56.676 26.664 56.052 27.32C55.444 27.96 55.14 28.648 55.14 29.384C55.14 29.816 55.268 30.24 55.524 30.656C55.78 31.072 56.116 31.48 56.532 31.88C56.964 32.28 57.428 32.688 57.924 33.104C58.468 33.584 58.972 34.056 59.436 34.52C59.916 34.984 60.3 35.472 60.588 35.984C60.892 36.48 61.044 37.024 61.044 37.616C61.044 38.4 60.788 39.104 60.276 39.728C59.78 40.336 59.092 40.816 58.212 41.168C57.332 41.52 56.332 41.696 55.212 41.696ZM45.06 38.528C45.524 37.728 45.972 36.872 46.404 35.96C46.836 35.048 47.228 34.128 47.58 33.2C47.932 32.272 48.212 31.4 48.42 30.584L49.524 30.896C49.3 31.728 49.012 32.616 48.66 33.56C48.308 34.504 47.916 35.44 47.484 36.368C47.052 37.296 46.588 38.176 46.092 39.008L45.06 38.528ZM66.324 38.912C66.052 38.016 65.708 37.096 65.292 36.152C64.876 35.208 64.428 34.288 63.948 33.392C63.468 32.496 62.988 31.696 62.508 30.992L63.492 30.44C63.988 31.16 64.476 31.984 64.956 32.912C65.452 33.824 65.908 34.768 66.324 35.744C66.74 36.704 67.1 37.648 67.404 38.576L66.324 38.912ZM69.996 39.056V24.2H71.1V33.104H70.524C70.828 31.904 71.324 30.8 72.012 29.792C72.7 28.784 73.548 27.912 74.556 27.176C75.58 26.424 76.716 25.84 77.964 25.424C79.212 25.008 80.54 24.8 81.948 24.8C83.564 24.8 84.972 25.088 86.172 25.664C87.388 26.224 88.324 27.016 88.98 28.04C89.652 29.048 89.988 30.24 89.988 31.616C89.988 32.992 89.652 34.192 88.98 35.216C88.308 36.24 87.356 37.032 86.124 37.592C84.908 38.152 83.46 38.432 81.78 38.432C80.052 38.432 78.58 38.104 77.364 37.448C76.164 36.792 75.116 35.768 74.22 34.376L75.012 33.632C75.844 34.944 76.796 35.896 77.868 36.488C78.94 37.08 80.244 37.376 81.78 37.376C83.236 37.376 84.492 37.144 85.548 36.68C86.604 36.2 87.42 35.528 87.996 34.664C88.572 33.8 88.86 32.784 88.86 31.616C88.86 30.432 88.572 29.416 87.996 28.568C87.436 27.704 86.636 27.04 85.596 26.576C84.572 26.112 83.356 25.88 81.948 25.88C80.444 25.88 79.036 26.136 77.724 26.648C76.428 27.16 75.276 27.872 74.268 28.784C73.276 29.68 72.5 30.72 71.94 31.904C71.38 33.072 71.1 34.336 71.1 35.696V39.056H69.996ZM76.38 41.84C77.324 41.52 78.108 41.152 78.732 40.736C79.356 40.32 79.852 39.824 80.22 39.248C80.588 38.656 80.852 37.944 81.012 37.112C81.172 36.28 81.252 35.272 81.252 34.088V22.016H82.38V34.088C82.38 35.8 82.204 37.216 81.852 38.336C81.516 39.44 80.948 40.336 80.148 41.024C79.348 41.728 78.244 42.32 76.836 42.8L76.38 41.84ZM100.044 38.744V29.6V21.656H101.148V29.6V38.744H100.044ZM93.828 25.832V24.848H112.692V25.832H93.828ZM105.636 40.952C106.82 40.808 107.86 40.464 108.756 39.92C109.652 39.376 110.356 38.688 110.868 37.856C111.38 37.024 111.636 36.112 111.636 35.12C111.636 34 111.316 33.032 110.676 32.216C110.052 31.384 109.156 30.744 107.988 30.296C106.836 29.832 105.46 29.6 103.86 29.6C102.612 29.6 101.436 29.792 100.332 30.176C99.244 30.544 98.292 31.064 97.476 31.736C96.66 32.408 96.02 33.192 95.556 34.088C95.092 34.984 94.86 35.952 94.86 36.992C94.86 37.872 95.028 38.6 95.364 39.176C95.7 39.736 96.14 40.016 96.684 40.016C97.132 40.016 97.716 39.832 98.436 39.464C99.156 39.08 99.94 38.552 100.788 37.88C101.652 37.208 102.532 36.44 103.428 35.576C104.34 34.712 105.212 33.784 106.044 32.792C106.892 31.8 107.652 30.816 108.324 29.84L109.212 30.416C108.476 31.52 107.66 32.592 106.764 33.632C105.868 34.672 104.94 35.648 103.98 36.56C103.036 37.456 102.1 38.248 101.172 38.936C100.244 39.608 99.38 40.136 98.58 40.52C97.796 40.904 97.124 41.096 96.564 41.096C95.716 41.08 95.036 40.696 94.524 39.944C94.012 39.192 93.756 38.216 93.756 37.016C93.756 35.832 94.004 34.736 94.5 33.728C95.012 32.704 95.724 31.808 96.636 31.04C97.548 30.272 98.612 29.68 99.828 29.264C101.044 28.832 102.348 28.616 103.74 28.616C105.58 28.616 107.172 28.88 108.516 29.408C109.876 29.936 110.924 30.688 111.66 31.664C112.396 32.64 112.764 33.792 112.764 35.12C112.764 36.272 112.468 37.336 111.876 38.312C111.3 39.288 110.492 40.104 109.452 40.76C108.428 41.4 107.244 41.808 105.9 41.984L105.636 40.952ZM126.372 42.032C123.908 42.032 122.092 41.432 120.924 40.232C119.772 39.032 119.196 37.16 119.196 34.616V22.52H120.348V34.616C120.348 36.792 120.828 38.392 121.788 39.416C122.748 40.424 124.276 40.928 126.372 40.928C127.844 40.928 129.148 40.664 130.284 40.136C131.42 39.608 132.428 38.776 133.308 37.64C134.204 36.504 135.036 35.016 135.804 33.176L136.884 33.608C136.068 35.592 135.164 37.208 134.172 38.456C133.196 39.688 132.068 40.592 130.788 41.168C129.508 41.744 128.036 42.032 126.372 42.032Z" fill="#004681"/>
<path d="M58.424 50.608L58.322 50.188C58.886 50.036 59.384 49.878 59.816 49.714C60.252 49.55 60.632 49.374 60.956 49.186C61.284 48.994 61.57 48.786 61.814 48.562C62.062 48.334 62.282 48.082 62.474 47.806L62.93 47.944C62.71 48.256 62.458 48.54 62.174 48.796C61.894 49.052 61.574 49.288 61.214 49.504C60.854 49.72 60.444 49.92 59.984 50.104C59.524 50.284 59.004 50.452 58.424 50.608ZM62.714 52.54C62.134 52.376 61.556 52.236 60.98 52.12C60.408 52.008 59.828 51.916 59.24 51.844L59.318 51.43C59.914 51.498 60.506 51.592 61.094 51.712C61.682 51.832 62.266 51.98 62.846 52.156L62.714 52.54ZM62.114 51.226C61.762 51.078 61.408 50.946 61.052 50.83C60.696 50.71 60.334 50.602 59.966 50.506L60.11 50.122C60.486 50.218 60.854 50.326 61.214 50.446C61.578 50.566 61.938 50.702 62.294 50.854L62.114 51.226ZM58.538 49.204L58.346 48.808C58.738 48.564 59.09 48.29 59.402 47.986C59.714 47.682 59.974 47.36 60.182 47.02L60.65 47.116C60.506 47.38 60.326 47.638 60.11 47.89C59.898 48.138 59.658 48.374 59.39 48.598C59.126 48.822 58.842 49.024 58.538 49.204ZM63.68 50.602C62.988 50.398 62.378 50.182 61.85 49.954C61.326 49.726 60.86 49.474 60.452 49.198C60.048 48.918 59.68 48.604 59.348 48.256L59.726 48.046C59.942 48.282 60.176 48.5 60.428 48.7C60.684 48.896 60.972 49.08 61.292 49.252C61.616 49.42 61.984 49.582 62.396 49.738C62.808 49.89 63.278 50.042 63.806 50.194L63.68 50.602ZM59.846 47.944V47.548H62.93V47.944H59.846ZM67.502 51.712C67.726 51.688 67.934 51.624 68.126 51.52C68.318 51.412 68.484 51.274 68.624 51.106C68.768 50.934 68.878 50.74 68.954 50.524C69.034 50.304 69.074 50.068 69.074 49.816C69.074 49.456 68.99 49.144 68.822 48.88C68.658 48.612 68.428 48.406 68.132 48.262C67.84 48.114 67.498 48.04 67.106 48.04C66.778 48.04 66.47 48.094 66.182 48.202C65.898 48.31 65.648 48.46 65.432 48.652C65.22 48.844 65.054 49.068 64.934 49.324C64.814 49.58 64.754 49.858 64.754 50.158C64.754 50.39 64.79 50.608 64.862 50.812C64.934 51.016 65.028 51.182 65.144 51.31C65.26 51.434 65.384 51.496 65.516 51.496C65.704 51.496 65.88 51.348 66.044 51.052C66.212 50.752 66.36 50.324 66.488 49.768C66.62 49.212 66.724 48.542 66.8 47.758L67.25 47.806C67.15 48.738 67.022 49.512 66.866 50.128C66.71 50.744 66.522 51.204 66.302 51.508C66.082 51.812 65.826 51.964 65.534 51.964C65.366 51.964 65.208 51.918 65.06 51.826C64.916 51.73 64.788 51.6 64.676 51.436C64.564 51.268 64.476 51.076 64.412 50.86C64.352 50.64 64.322 50.406 64.322 50.158C64.322 49.79 64.39 49.452 64.526 49.144C64.666 48.836 64.862 48.568 65.114 48.34C65.366 48.112 65.662 47.936 66.002 47.812C66.342 47.684 66.712 47.62 67.112 47.62C67.584 47.62 68 47.71 68.36 47.89C68.724 48.07 69.008 48.324 69.212 48.652C69.416 48.98 69.518 49.368 69.518 49.816C69.518 50.12 69.47 50.406 69.374 50.674C69.282 50.942 69.15 51.18 68.978 51.388C68.81 51.592 68.61 51.758 68.378 51.886C68.146 52.014 67.892 52.092 67.616 52.12L67.502 51.712ZM72.632 52.018V49.33H71.18V48.946H74.42V47.704H71.18V49.33H70.718V47.308H74.882V49.33H73.118V50.176H75.08V50.572H73.118V52.018H72.632ZM70.484 52.486L70.088 52.306C70.312 51.938 70.506 51.534 70.67 51.094C70.838 50.654 70.968 50.208 71.06 49.756L71.492 49.84C71.404 50.304 71.272 50.764 71.096 51.22C70.924 51.676 70.72 52.098 70.484 52.486ZM75.044 52.39C74.42 52.39 73.884 52.362 73.436 52.306C72.992 52.25 72.612 52.156 72.296 52.024C71.984 51.896 71.718 51.722 71.498 51.502C71.278 51.282 71.08 51.008 70.904 50.68L71.258 50.512C71.374 50.736 71.504 50.93 71.648 51.094C71.796 51.258 71.966 51.398 72.158 51.514C72.354 51.626 72.586 51.716 72.854 51.784C73.122 51.852 73.436 51.902 73.796 51.934C74.16 51.962 74.582 51.976 75.062 51.976H75.452L75.428 52.39H75.044ZM78.206 52.468L77.888 52.114C78.096 51.966 78.272 51.804 78.416 51.628C78.564 51.448 78.684 51.23 78.776 50.974C78.868 50.714 78.934 50.39 78.974 50.002C79.018 49.614 79.04 49.136 79.04 48.568V48.25H78.02V47.842H79.508V47.026H79.994V47.842H81.428V48.25H80.462V51.64C80.462 51.808 80.456 51.942 80.444 52.042C80.432 52.146 80.408 52.222 80.372 52.27C80.336 52.322 80.282 52.356 80.21 52.372C80.138 52.392 80.042 52.402 79.922 52.402C79.858 52.402 79.768 52.398 79.652 52.39C79.536 52.386 79.408 52.38 79.268 52.372L79.25 51.958C79.39 51.97 79.502 51.978 79.586 51.982C79.674 51.986 79.744 51.988 79.796 51.988C79.868 51.988 79.92 51.984 79.952 51.976C79.984 51.964 80.002 51.934 80.006 51.886C80.014 51.838 80.018 51.756 80.018 51.64V48.25H79.484V48.61C79.484 49.182 79.462 49.672 79.418 50.08C79.374 50.488 79.302 50.836 79.202 51.124C79.102 51.412 78.97 51.664 78.806 51.88C78.646 52.092 78.446 52.288 78.206 52.468ZM75.986 52.492L75.914 52.102C76.242 51.998 76.58 51.88 76.928 51.748C77.276 51.612 77.63 51.46 77.99 51.292L78.026 51.688C77.674 51.852 77.326 52.002 76.982 52.138C76.638 52.274 76.306 52.392 75.986 52.492ZM76.142 52.12V49.564H76.544V52.12H76.142ZM76.856 51.922V49.168H76.472V48.79H77.438V47.704H76.472V49.168H76.016V47.308H77.87V49.168H77.294V49.9H77.87V50.302H77.294V51.922H76.856ZM78.122 51.232L77.744 51.058C77.884 50.754 78.006 50.41 78.11 50.026C78.218 49.642 78.298 49.25 78.35 48.85L78.752 48.922C78.7 49.342 78.618 49.754 78.506 50.158C78.394 50.558 78.266 50.916 78.122 51.232ZM81.17 51.388C81.098 50.98 81.002 50.558 80.882 50.122C80.766 49.686 80.636 49.282 80.492 48.91L80.9 48.772C81.04 49.144 81.168 49.55 81.284 49.99C81.404 50.426 81.5 50.846 81.572 51.25L81.17 51.388ZM83.228 52.438C83.044 52.198 82.848 51.974 82.64 51.766C82.436 51.554 82.21 51.356 81.962 51.172L82.274 50.842C82.522 51.03 82.754 51.236 82.97 51.46C83.19 51.68 83.394 51.916 83.582 52.168L83.228 52.438ZM91.022 51.712C91.246 51.688 91.454 51.624 91.646 51.52C91.838 51.412 92.004 51.274 92.144 51.106C92.288 50.934 92.398 50.74 92.474 50.524C92.554 50.304 92.594 50.068 92.594 49.816C92.594 49.456 92.51 49.144 92.342 48.88C92.178 48.612 91.948 48.406 91.652 48.262C91.36 48.114 91.018 48.04 90.626 48.04C90.298 48.04 89.99 48.094 89.702 48.202C89.418 48.31 89.168 48.46 88.952 48.652C88.74 48.844 88.574 49.068 88.454 49.324C88.334 49.58 88.274 49.858 88.274 50.158C88.274 50.39 88.31 50.608 88.382 50.812C88.454 51.016 88.548 51.182 88.664 51.31C88.78 51.434 88.904 51.496 89.036 51.496C89.224 51.496 89.4 51.348 89.564 51.052C89.732 50.752 89.88 50.324 90.008 49.768C90.14 49.212 90.244 48.542 90.32 47.758L90.77 47.806C90.67 48.738 90.542 49.512 90.386 50.128C90.23 50.744 90.042 51.204 89.822 51.508C89.602 51.812 89.346 51.964 89.054 51.964C88.886 51.964 88.728 51.918 88.58 51.826C88.436 51.73 88.308 51.6 88.196 51.436C88.084 51.268 87.996 51.076 87.932 50.86C87.872 50.64 87.842 50.406 87.842 50.158C87.842 49.79 87.91 49.452 88.046 49.144C88.186 48.836 88.382 48.568 88.634 48.34C88.886 48.112 89.182 47.936 89.522 47.812C89.862 47.684 90.232 47.62 90.632 47.62C91.104 47.62 91.52 47.71 91.88 47.89C92.244 48.07 92.528 48.324 92.732 48.652C92.936 48.98 93.038 49.368 93.038 49.816C93.038 50.12 92.99 50.406 92.894 50.674C92.802 50.942 92.67 51.18 92.498 51.388C92.33 51.592 92.13 51.758 91.898 51.886C91.666 52.014 91.412 52.092 91.136 52.12L91.022 51.712ZM96.38 52.168C95.924 52.168 95.524 52.116 95.18 52.012C94.84 51.912 94.574 51.772 94.382 51.592C94.194 51.408 94.1 51.194 94.1 50.95C94.1 50.75 94.168 50.53 94.304 50.29C94.44 50.05 94.648 49.786 94.928 49.498L95.306 49.738C94.826 50.222 94.586 50.612 94.586 50.908C94.586 51.072 94.66 51.218 94.808 51.346C94.96 51.474 95.17 51.574 95.438 51.646C95.71 51.714 96.024 51.748 96.38 51.748C96.596 51.748 96.826 51.738 97.07 51.718C97.314 51.694 97.548 51.662 97.772 51.622C98 51.582 98.194 51.538 98.354 51.49L98.456 51.904C98.296 51.952 98.098 51.996 97.862 52.036C97.626 52.076 97.378 52.108 97.118 52.132C96.858 52.156 96.612 52.168 96.38 52.168ZM94.4 48.112V47.692H98.3V48.112H94.4ZM103.082 52.192C102.442 52.192 101.946 52.09 101.594 51.886C101.246 51.682 101.072 51.392 101.072 51.016C101.072 50.732 101.176 50.476 101.384 50.248C101.592 50.016 101.886 49.832 102.266 49.696V49.864L99.662 50.068L99.644 49.666C100.028 49.586 100.406 49.484 100.778 49.36C101.154 49.236 101.51 49.094 101.846 48.934C102.182 48.774 102.486 48.604 102.758 48.424C103.034 48.24 103.264 48.05 103.448 47.854L103.58 47.968H100.34V47.566H104.03V47.968C103.862 48.136 103.656 48.306 103.412 48.478C103.172 48.646 102.906 48.81 102.614 48.97C102.326 49.126 102.024 49.27 101.708 49.402C101.396 49.534 101.086 49.644 100.778 49.732L100.694 49.648L104.648 49.324L104.666 49.726L103.442 49.822C103.038 49.85 102.696 49.914 102.416 50.014C102.136 50.114 101.922 50.242 101.774 50.398C101.63 50.554 101.558 50.734 101.558 50.938C101.558 51.214 101.688 51.426 101.948 51.574C102.212 51.718 102.598 51.79 103.106 51.79C103.262 51.79 103.414 51.782 103.562 51.766C103.71 51.75 103.88 51.726 104.072 51.694L104.132 52.096C103.944 52.128 103.766 52.152 103.598 52.168C103.434 52.184 103.262 52.192 103.082 52.192ZM106.604 51.838C107.104 51.822 107.554 51.77 107.954 51.682C108.358 51.594 108.704 51.478 108.992 51.334C109.28 51.19 109.5 51.02 109.652 50.824C109.808 50.628 109.886 50.414 109.886 50.182C109.886 49.618 109.398 49.336 108.422 49.336C108.21 49.336 107.976 49.35 107.72 49.378C107.464 49.402 107.176 49.442 106.856 49.498C106.54 49.554 106.182 49.628 105.782 49.72L105.674 49.288C106.222 49.164 106.728 49.07 107.192 49.006C107.66 48.942 108.072 48.91 108.428 48.91C109.072 48.91 109.558 49.014 109.886 49.222C110.214 49.43 110.378 49.742 110.378 50.158C110.378 50.462 110.292 50.742 110.12 50.998C109.948 51.25 109.7 51.468 109.376 51.652C109.052 51.836 108.664 51.982 108.212 52.09C107.76 52.198 107.254 52.258 106.694 52.27L106.604 51.838ZM109.466 48.028C109.198 48.028 108.898 48.02 108.566 48.004C108.238 47.984 107.898 47.958 107.546 47.926C107.198 47.894 106.862 47.858 106.538 47.818L106.598 47.368C106.894 47.412 107.21 47.452 107.546 47.488C107.882 47.52 108.216 47.546 108.548 47.566C108.88 47.582 109.186 47.59 109.466 47.59V48.028ZM112.28 52.48C111.992 52.48 111.76 52.392 111.584 52.216C111.408 52.04 111.32 51.808 111.32 51.52C111.32 51.232 111.408 51 111.584 50.824C111.76 50.648 111.992 50.56 112.28 50.56C112.568 50.56 112.8 50.648 112.976 50.824C113.152 51 113.24 51.232 113.24 51.52C113.24 51.808 113.152 52.04 112.976 52.216C112.8 52.392 112.568 52.48 112.28 52.48ZM112.28 52.09C112.452 52.09 112.59 52.038 112.694 51.934C112.798 51.83 112.85 51.692 112.85 51.52C112.85 51.348 112.798 51.21 112.694 51.106C112.59 51.002 112.452 50.95 112.28 50.95C112.108 50.95 111.97 51.002 111.866 51.106C111.762 51.21 111.71 51.348 111.71 51.52C111.71 51.692 111.762 51.83 111.866 51.934C111.97 52.038 112.108 52.09 112.28 52.09Z" fill="#004681"/>
<line x1="35" y1="43.5" x2="140" y2="43.5" stroke="#9BA9D0"/>
<ellipse cx="48.5" cy="44.5" rx="5.5" ry="1.5" fill="#9BA9D0"/>
<ellipse cx="63.5" cy="43.5" rx="5.5" ry="1.5" fill="#9BA9D0"/>
<ellipse cx="62.5" cy="42.5" rx="5.5" ry="1.5" fill="#004681"/>
<ellipse cx="107.5" cy="44.5" rx="5.5" ry="1.5" fill="#9BA9D0"/>
<ellipse cx="122.5" cy="43.5" rx="5.5" ry="1.5" fill="#9BA9D0"/>
<ellipse cx="121.5" cy="42.5" rx="5.5" ry="1.5" fill="#004681"/>
<ellipse cx="36.5" cy="42.5" rx="5.5" ry="1.5" fill="#9BA9D0"/>
<ellipse cx="76.5" cy="44.5" rx="5.5" ry="1.5" fill="#9BA9D0"/>
<ellipse cx="91.5" cy="43.5" rx="5.5" ry="1.5" fill="#9BA9D0"/>
<ellipse cx="90.5" cy="42.5" rx="5.5" ry="1.5" fill="#004681"/>
<path d="M25 0C37.7025 0 48 10.2975 48 23C48 32.3566 42.4125 40.4075 34.3926 44H15.6074C7.58746 40.4075 2 32.3566 2 23C2 10.2975 12.2975 0 25 0Z" fill="#9BA9D0"/>
<path d="M18.4309 42.7267L11.1767 40.0864L11.1876 40.0571C10.0219 39.4359 9.4621 38.0521 9.93063 36.7917C10.3995 35.5313 11.7325 34.8356 13.0274 35.1098L13.0379 35.0815L14.4888 35.6095L16.0838 31.3203L21.8871 33.4326L18.4309 42.7267Z" fill="#004681"/>
<rect x="17.3578" y="7.6748" width="9.57143" height="1.91429" rx="0.957143" transform="rotate(-15 17.3578 7.6748)" fill="#004681"/>
<rect x="17.5054" y="2.802" width="6.96286" height="6.55012" rx="2" transform="rotate(-15 17.5054 2.802)" fill="#004681"/>
<circle cx="25.4429" cy="16.3144" r="9.57143" fill="#F6F5FA"/>
<ellipse cx="25.4429" cy="28.7571" rx="12.4429" ry="12.4429" fill="#F6F5FA"/>
<path d="M36.0001 42.2794L28.3907 43.6026L28.3852 43.5718C27.0621 43.6141 25.8746 42.6963 25.638 41.3733C25.4015 40.0502 26.1986 38.7853 27.4567 38.3788L27.4515 38.3499L28.9736 38.0853L28.1685 33.5825L34.2558 32.5239L36.0001 42.2794Z" fill="#004681"/>
<rect x="30" y="21" width="2" height="5" rx="1" fill="#004681"/>
<rect x="17" y="19" width="17" height="4" rx="2" fill="#004681"/>
<rect x="32" y="20" width="2" height="6" rx="1" fill="#004681"/>
<rect x="31" y="21" width="2" height="5" rx="1" fill="#004681"/>
</svg>
