<svg viewBox="0 0 32 32" fill="none" xmlns="http://www.w3.org/2000/svg">
<path d="M16 3C23.1797 3 29 8.8203 29 16C29 23.1797 23.1797 29 16 29C8.8203 29 3 23.1797 3 16C3 8.8203 8.8203 3 16 3ZM16 11.9141C14.9743 11.9141 14.1426 12.7458 14.1426 13.7715V23.4287C14.1426 24.4544 14.9743 25.2861 16 25.2861C17.0257 25.2861 17.8574 24.4544 17.8574 23.4287V13.7715C17.8574 12.7458 17.0256 11.9141 16 11.9141ZM16 5.97168C14.9745 5.97168 14.1428 6.80264 14.1426 7.82812C14.1426 8.8538 14.9743 9.68555 16 9.68555C17.0257 9.68554 17.8574 8.85379 17.8574 7.82812C17.8572 6.80264 17.0255 5.97169 16 5.97168Z" fill="currentColor"/>
</svg>
