<svg width="48" height="48" viewBox="0 0 48 48" fill="none" xmlns="http://www.w3.org/2000/svg">
<circle cx="24" cy="24" r="24" transform="matrix(1 0 0 -1 0 48)" fill="#F6F5FA"/>
<path d="M14.8288 23.3253L15.3761 23.3715C15.6925 23.3982 16.0009 23.4578 16.2962 23.5492L16.7927 23.7029C17.5438 23.9354 18.1379 24.4498 18.4525 25.1401C18.6629 25.6019 18.7393 26.1229 18.6741 26.6532L18.537 27.7684C18.456 28.4271 18.2843 29.083 18.0265 29.7186L17.2964 31.5182L16.5717 33.2029C16.5288 33.3026 16.4776 33.3997 16.4186 33.4929C15.99 34.1702 15.2032 34.5735 14.4366 34.5088L11.2192 34.2374C10.4531 34.1727 9.82437 33.7243 9.55661 33.0515L9.20582 31.596L9.09909 30.4522C9.06301 30.0655 9.05642 29.6735 9.07938 29.279L9.09442 29.0207C9.12733 28.4553 9.23911 27.8876 9.42675 27.3328L9.53081 27.0252C9.74987 26.3775 10.1008 25.7645 10.5616 25.2245L10.6659 25.1023C11.1811 24.4987 11.8358 24.0171 12.5652 23.7053C13.2961 23.3929 14.0766 23.2618 14.8288 23.3253Z" fill="#004681"/>
<path d="M11.4548 38.8199L12.847 38.9374C13.0399 38.9536 13.239 38.9415 13.4354 38.9019C14.0788 38.7719 14.6582 38.3528 14.9812 37.7798L14.9925 37.7598C15.0506 37.6568 15.0985 37.5496 15.1357 37.4399L15.3199 36.8959C15.5585 36.1914 15.1259 35.5175 14.3954 35.4559L10.1517 35.0978C9.80707 35.0687 9.46907 35.3194 9.39679 35.6576L9.24713 36.358C9.20845 36.539 9.20833 36.7213 9.2468 36.8935L9.30761 37.1656C9.35781 37.3902 9.44515 37.6025 9.56562 37.7937C9.69586 38.0004 9.86441 38.1813 10.0633 38.3271C10.1558 38.395 10.2546 38.4551 10.3588 38.507L10.4069 38.531C10.7272 38.6906 11.0823 38.7885 11.4548 38.8199Z" fill="#004681"/>
<path d="M23.0854 38.9678L22.7803 38.8687C22.5418 38.7913 22.2882 38.739 22.0248 38.713L21.7476 38.6855C21.0353 38.6151 20.271 38.7877 19.6226 39.1654C19.2365 39.3904 18.9065 39.6795 18.6596 40.0091L18.0341 40.8441C17.6985 41.2921 17.4242 41.7633 17.2171 42.2475L16.6203 43.6429L16.0869 44.9663C16.0593 45.0348 16.0379 45.1041 16.023 45.1735C15.9007 45.7433 16.2228 46.2559 16.8265 46.4518L18.9406 47.1382C19.5268 47.3286 20.2464 47.2228 20.8215 46.8618L21.9235 46.0099L23.0608 44.9276L23.542 44.3503C23.8549 43.9749 24.1169 43.5768 24.3221 43.1647L24.4663 42.8752C24.6923 42.4215 24.8173 41.9504 24.8345 41.4869L24.8429 41.2626C24.8611 40.7728 24.7225 40.3085 24.4407 39.9154C24.131 39.4834 23.6608 39.1546 23.0854 38.9678Z" fill="#004681"/>
<path d="M28.9234 1.56018L29.4707 1.60636C29.7871 1.63305 30.0956 1.69261 30.3909 1.78404L30.8874 1.93774C31.6384 2.17024 32.2325 2.68469 32.5471 3.37493C32.7576 3.83675 32.8339 4.35779 32.7687 4.88803L32.6316 6.00322C32.5507 6.66195 32.379 7.31789 32.1211 7.95346L31.391 9.75309L30.6664 11.4378C30.6235 11.5375 30.5722 11.6345 30.5132 11.7278C30.0846 12.4051 29.2979 12.8084 28.5312 12.7437L25.3139 12.4722C24.5478 12.4076 23.919 11.9591 23.6512 11.2863L23.3005 9.8309L23.1937 8.68706C23.1576 8.3004 23.1511 7.90833 23.174 7.5139L23.1891 7.25556C23.222 6.69021 23.3337 6.12248 23.5214 5.56769L23.6254 5.26002C23.8445 4.61235 24.1954 3.99932 24.6563 3.45932L24.7605 3.3372C25.2757 2.73353 25.9304 2.25193 26.6598 1.94015C27.3908 1.62772 28.1712 1.49671 28.9234 1.56018Z" fill="#004681"/>
<path d="M25.5494 17.0548L26.9416 17.1722C27.1345 17.1885 27.3337 17.1764 27.53 17.1367C28.1734 17.0068 28.7528 16.5876 29.0758 16.0147L29.0871 15.9947C29.1452 15.8916 29.1932 15.7845 29.2303 15.6748L29.4145 15.1308C29.6531 14.4263 29.2205 13.7524 28.4901 13.6907L24.2464 13.3327C23.9017 13.3036 23.5637 13.5542 23.4914 13.8925L23.3418 14.5929C23.3031 14.7739 23.303 14.9562 23.3414 15.1283L23.4022 15.4004C23.4524 15.625 23.5398 15.8374 23.6602 16.0286C23.7905 16.2353 23.959 16.4161 24.1579 16.5619C24.2504 16.6298 24.3492 16.69 24.4534 16.7419L24.5015 16.7659C24.8218 16.9254 25.1769 17.0233 25.5494 17.0548Z" fill="#004681"/>
<path d="M37.18 17.2027L36.8749 17.1036C36.6364 17.0262 36.3828 16.9739 36.1194 16.9478L35.8422 16.9204C35.1299 16.8499 34.3656 17.0225 33.7172 17.4003C33.3311 17.6252 33.0011 17.9143 32.7542 18.2439L32.1287 19.0789C31.7931 19.527 31.5188 19.9982 31.3117 20.4823L30.7149 21.8778L30.1815 23.2012C30.1539 23.2697 30.1325 23.339 30.1176 23.4084C29.9953 23.9782 30.3175 24.4907 30.9211 24.6867L33.0352 25.3731C33.6214 25.5634 34.3411 25.4577 34.9162 25.0967L36.0181 24.2448L37.1555 23.1624L37.6366 22.5852C37.9495 22.2098 38.2115 21.8117 38.4167 21.3996L38.5609 21.1101C38.7869 20.6564 38.9119 20.1853 38.9291 19.7218L38.9375 19.4975C38.9557 19.0076 38.8171 18.5433 38.5353 18.1502C38.2257 17.7183 37.7554 17.3895 37.18 17.2027Z" fill="#004681"/>
<path d="M30.2026 28.3243L29.2414 28.0122C29.0914 27.9635 28.9564 27.8934 28.8416 27.8046C28.5002 27.5403 28.3661 27.133 28.482 26.7128L28.5096 26.6126C28.5312 26.5343 28.5612 26.4566 28.5991 26.3804L28.8568 25.8624C29.0947 25.3843 29.7573 25.1152 30.2793 25.2847L33.2994 26.2652C33.5447 26.3449 33.6311 26.5857 33.4924 26.8031L33.1343 27.3643C33.0581 27.4838 32.9572 27.594 32.837 27.6892L32.6061 27.872C32.4488 27.9966 32.2736 28.1044 32.0863 28.1919L32.0589 28.2047C31.8596 28.2978 31.6479 28.3647 31.4326 28.4026C31.3275 28.4211 31.222 28.4326 31.1174 28.4369L31.0832 28.4384C30.7734 28.4512 30.4739 28.4124 30.2026 28.3243Z" fill="#004681"/>
</svg>
