<svg viewBox="0 0 32 32" fill="none" xmlns="http://www.w3.org/2000/svg">
<rect x="8.56772" y="19.6481" width="6.2175" height="8.36378" rx="2" transform="rotate(30 8.56772 19.6481)" fill="currentColor"/>
<path d="M16.4953 22.7371C21.8073 22.7371 26.1142 18.4309 26.1144 13.1189C26.1144 7.80673 21.8074 3.49976 16.4953 3.49976C11.1833 3.49994 6.87712 7.80685 6.87712 13.1189C6.87732 18.4308 11.1834 22.7369 16.4953 22.7371Z" stroke="currentColor" stroke-width="3"/>
<path d="M15.3464 5.73171L15.6485 5.75793C15.8351 5.77413 16.0171 5.81026 16.1911 5.86568L16.4563 5.95013C16.9059 6.09332 17.2605 6.40672 17.4456 6.82454C17.5659 7.09597 17.6096 7.40028 17.5726 7.70937L17.4911 8.39195C17.4441 8.78475 17.3446 9.17573 17.1951 9.55496L16.7696 10.6338L16.3468 11.6448C16.3227 11.7027 16.2937 11.759 16.2604 11.8132C16.0106 12.2193 15.5431 12.4616 15.0856 12.4219L13.2483 12.2624C12.7946 12.223 12.4224 11.9534 12.2669 11.5514L12.0628 10.6804L11.9692 9.64829L11.9981 9.13761C12.0172 8.8002 12.082 8.46165 12.1908 8.13062L12.2554 7.93412C12.3806 7.55343 12.5817 7.19253 12.8467 6.8731L12.9235 6.78045C13.2158 6.42813 13.5902 6.14577 14.0096 5.96136C14.4394 5.77235 14.901 5.69305 15.3464 5.73171Z" fill="currentColor"/>
<path d="M13.3731 15.004L14.1773 15.0738C14.292 15.0837 14.4096 15.0765 14.5261 15.0523C14.9003 14.9746 15.2323 14.7288 15.416 14.3935L15.4301 14.3678C15.4633 14.3072 15.4907 14.2442 15.5119 14.1799L15.6266 13.8316C15.7619 13.4206 15.5073 13.0275 15.0819 12.9906L12.6131 12.7763C12.4126 12.7589 12.2168 12.9045 12.1759 13.1016L12.0861 13.5338C12.0641 13.64 12.0641 13.747 12.0861 13.8484L12.1227 14.017C12.1515 14.1493 12.2014 14.2743 12.2709 14.3877L12.2738 14.3925C12.3487 14.5147 12.4457 14.6214 12.561 14.7084C12.6152 14.7493 12.6733 14.7857 12.7346 14.8171L12.7609 14.8306C12.9475 14.9262 13.1552 14.9851 13.3731 15.004Z" fill="currentColor"/>
<path d="M20.1308 15.0899L19.9621 15.0336C19.8219 14.9868 19.673 14.9552 19.5183 14.9394L19.3716 14.9245C18.9494 14.8815 18.4984 14.9854 18.1187 15.213C17.8968 15.346 17.7076 15.5163 17.5664 15.7103L17.1981 16.2159C17.0033 16.4835 16.8441 16.7649 16.7238 17.0542L16.3763 17.8901L16.0655 18.6833C16.0497 18.7235 16.0376 18.7642 16.029 18.8049C15.9578 19.1463 16.1496 19.4554 16.5067 19.5746L17.7187 19.9794C18.0639 20.0947 18.4862 20.0323 18.8204 19.8165L19.4615 19.3067L20.1232 18.6589L20.4035 18.3129C20.5853 18.0885 20.7374 17.8508 20.8566 17.6046L20.943 17.4261C21.0731 17.1575 21.1449 16.8783 21.1549 16.6029L21.1602 16.4579C21.1706 16.1697 21.0906 15.8956 20.9281 15.6623C20.7466 15.402 20.4697 15.2031 20.1308 15.0899Z" fill="currentColor"/>
<path d="M16.0771 21.7478L15.521 21.5621C15.4325 21.5325 15.3528 21.4899 15.2851 21.4361C15.0873 21.2785 15.0091 21.038 15.0753 20.7911L15.0936 20.7229C15.106 20.6766 15.1232 20.6307 15.1449 20.5857L15.2998 20.2656C15.4359 19.9842 15.819 19.8276 16.1228 19.929L17.8798 20.5159C18.0225 20.5635 18.0739 20.7058 17.9946 20.8337L17.7829 21.1751C17.7391 21.2457 17.6812 21.3108 17.612 21.3671L17.4751 21.4786C17.3845 21.5524 17.2834 21.6164 17.175 21.6685L17.1567 21.6773C17.0417 21.7325 16.9192 21.7723 16.7943 21.7949C16.7328 21.8061 16.6711 21.813 16.6097 21.8156L16.591 21.8164C16.4105 21.8241 16.2357 21.8008 16.0771 21.7478Z" fill="currentColor"/>
</svg>
