<svg viewBox="0 0 32 32" fill="none" xmlns="http://www.w3.org/2000/svg">
<path d="M17.9442 3.94617C24.6023 3.94617 30 9.34382 30 16.0019C29.9999 22.5598 24.7638 27.8947 18.2442 28.0538C20.1691 26.3214 21.4446 23.3133 21.4446 19.8904C21.4445 14.5211 18.3105 10.1686 14.4446 10.1685C10.5787 10.1685 7.44471 14.521 7.44462 19.8904C7.44462 20.7205 7.51954 21.5265 7.66047 22.2957C6.53689 20.4637 5.88928 18.3085 5.88924 16.0019C5.88924 9.34391 11.2862 3.94632 17.9442 3.94617Z" fill="currentColor"/>
<path d="M2 21.0573C2 20.6278 2.34822 20.2795 2.77778 20.2795H13.6667C14.0963 20.2795 14.4445 20.6278 14.4445 21.0573C14.4445 21.4869 14.0963 21.8351 13.6667 21.8351H2.77778C2.34822 21.8351 2 21.4869 2 21.0573Z" fill="currentColor"/>
<path d="M8.77222 26.3292C8.46847 26.0255 8.46847 25.533 8.77222 25.2293L13.172 20.8295C13.4757 20.5258 13.9682 20.5258 14.272 20.8295C14.5757 21.1332 14.5757 21.6257 14.272 21.9294L9.87216 26.3292C9.56842 26.633 9.07596 26.633 8.77222 26.3292Z" fill="currentColor"/>
<path d="M8.77219 16.1628C9.07594 15.8591 9.5684 15.8591 9.87214 16.1628L14.2719 20.5626C14.5757 20.8664 14.5757 21.3588 14.2719 21.6626C13.9682 21.9663 13.4757 21.9663 13.172 21.6626L8.77219 17.2628C8.46845 16.959 8.46845 16.4666 8.77219 16.1628Z" fill="currentColor"/>
</svg>
