<svg viewBox="0 0 32 32" fill="none" xmlns="http://www.w3.org/2000/svg">
<path d="M19.1499 5.15173C25.1421 5.1518 30 10.0096 30 16.0018C29.9999 21.9039 25.2869 26.7053 19.4192 26.8483C21.1517 25.2892 22.2995 22.5821 22.2995 19.5013C22.2995 14.669 19.4789 10.7517 15.9996 10.7517C12.5204 10.7519 9.6998 14.6691 9.69972 19.5013C9.69972 20.2484 9.76715 20.9738 9.89398 21.6661C8.88283 20.0173 8.29993 18.0776 8.29989 16.0018C8.29989 10.0096 13.1577 5.15173 19.1499 5.15173Z" fill="currentColor"/>
<path d="M2 20.5516C2 20.165 2.3134 19.8516 2.69999 19.8516H12.4999C12.8865 19.8516 13.1999 20.165 13.1999 20.5516C13.1999 20.9382 12.8865 21.2516 12.4999 21.2516H2.69999C2.3134 21.2516 2 20.9382 2 20.5516Z" fill="currentColor"/>
<path d="M2.49497 20.3963C2.22161 20.1229 2.22161 19.6797 2.49497 19.4063L6.45473 15.4466C6.72809 15.1732 7.1713 15.1732 7.44467 15.4466C7.71803 15.7199 7.71803 16.1632 7.44467 16.4365L3.48491 20.3963C3.21154 20.6696 2.76833 20.6696 2.49497 20.3963Z" fill="currentColor"/>
<path d="M2.49495 20.3465C2.76831 20.0732 3.21152 20.0732 3.48489 20.3465L7.44465 24.3063C7.71801 24.5797 7.71801 25.0229 7.44465 25.2962C7.17128 25.5696 6.72807 25.5696 6.45471 25.2962L2.49495 21.3365C2.22158 21.0631 2.22159 20.6199 2.49495 20.3465Z" fill="currentColor"/>
</svg>
