<svg viewBox="0 0 32 32" fill="none" xmlns="http://www.w3.org/2000/svg">
<path d="M29 5.2666C29.5523 5.2666 30 5.71432 30 6.2666V25.7334C29.9999 26.2856 29.5522 26.7334 29 26.7334H3C2.44776 26.7334 2.00007 26.2856 2 25.7334V6.2666C2 5.71432 2.44772 5.2666 3 5.2666H29ZM17.5059 16.9512C17.771 17.3404 17.731 17.8755 17.3857 18.2207L16.8203 18.7861C16.4298 19.1765 15.7968 19.1765 15.4062 18.7861L14.8408 18.2207C14.5347 17.9146 14.4689 17.4594 14.6426 17.0889L3.16309 6.5625C3.01968 6.73558 2.93359 6.95787 2.93359 7.2002V24.7998C2.93359 25.3521 3.38131 25.7998 3.93359 25.7998H28.0664C28.6187 25.7998 29.0664 25.3521 29.0664 24.7998V7.2002C29.0664 6.95764 28.9796 6.73565 28.8359 6.5625L17.5059 16.9512ZM3.87793 6.20215L15.0879 16.5576L15.4062 16.2402C15.7968 15.8499 16.4298 15.8498 16.8203 16.2402L17.0293 16.4492L28.1211 6.20215C28.103 6.20117 28.0848 6.2002 28.0664 6.2002H3.93359C3.91491 6.2002 3.89636 6.20114 3.87793 6.20215Z" fill="currentColor"/>
</svg>
