<svg viewBox="0 0 32 32" fill="none" xmlns="http://www.w3.org/2000/svg">
<path d="M11.7999 5.1499C15.6659 5.1499 18.7999 8.2839 18.7999 12.1499C18.7999 13.5518 18.3855 14.8558 17.6759 15.9507C17.4952 16.4456 17.2597 16.9136 16.9777 17.3491C16.8725 17.6374 16.7471 17.9159 16.6066 18.1851C16.4954 18.8668 16.2864 19.5152 15.9933 20.1157C15.8536 23.8586 12.7771 26.8501 9.00012 26.8501C5.13418 26.8501 2.00016 23.7161 2.00012 19.8501C2.00012 19.7326 2.00221 19.6156 2.00793 19.4995C2.00224 19.3837 2.00012 19.2671 2.00012 19.1499C2.00014 17.9825 2.28672 16.8823 2.79211 15.9146C2.91385 15.1683 3.15435 14.4622 3.49231 13.8149C3.65044 12.8453 4.00844 11.9433 4.52161 11.1509C4.70228 10.6556 4.93869 10.1873 5.22083 9.75146C6.19982 7.06662 8.77644 5.14996 11.7999 5.1499ZM9.00012 14.2495C5.90735 14.2495 3.40051 16.7573 3.40051 19.8501C3.4006 22.9428 5.9074 25.4497 9.00012 25.4497C12.0928 25.4497 14.5996 22.9428 14.5997 19.8501C14.5997 16.7573 12.0929 14.2495 9.00012 14.2495Z" fill="currentColor"/>
<path d="M20.2001 5.1499C23.2227 5.14992 25.7975 7.06588 26.7772 9.74951C27.0599 10.1859 27.2964 10.6549 27.4774 11.1509C27.9907 11.9434 28.3485 12.8452 28.5067 13.8149C28.8448 14.4622 29.0851 15.1682 29.2069 15.9146C29.7124 16.8824 29.9998 17.9823 29.9999 19.1499C29.9999 19.2671 29.9968 19.3837 29.9911 19.4995C29.9968 19.6156 29.9999 19.7326 29.9999 19.8501C29.9998 23.7161 26.8658 26.8501 22.9999 26.8501C19.2233 26.85 16.1469 23.8591 16.0067 20.1167C15.7134 19.5159 15.5037 18.8672 15.3924 18.1851C15.2523 17.9167 15.1283 17.6385 15.0233 17.3511C14.7407 16.915 14.5041 16.4464 14.3231 15.9507C13.6137 14.8559 13.2001 13.5515 13.2001 12.1499C13.2001 8.2839 16.3341 5.1499 20.2001 5.1499ZM22.9999 14.2495C19.9072 14.2496 17.4003 16.7573 17.4003 19.8501C17.4003 22.9428 19.9072 25.4496 22.9999 25.4497C26.0926 25.4497 28.6004 22.9428 28.6004 19.8501C28.6004 16.7573 26.0926 14.2495 22.9999 14.2495Z" fill="currentColor"/>
</svg>
