<svg width="48" height="48" viewBox="0 0 48 48" fill="none" xmlns="http://www.w3.org/2000/svg">
<circle cx="24" cy="24" r="24" transform="matrix(1 0 0 -1 0 48)" fill="#F6F5FA"/>
<ellipse cx="14.7224" cy="28.6316" rx="8.77612" ry="8.77612" fill="#004681"/>
<ellipse cx="16.4776" cy="22.4884" rx="8.77612" ry="8.77612" fill="#004681"/>
<ellipse cx="28.7642" cy="18.9779" rx="8.77612" ry="8.77612" fill="#004681"/>
<ellipse cx="18.2328" cy="18.9779" rx="8.77612" ry="8.77612" fill="#004681"/>
<ellipse cx="29.6418" cy="20.7332" rx="8.77612" ry="8.77612" fill="#004681"/>
<ellipse cx="17.3552" cy="20.7332" rx="8.77612" ry="8.77612" fill="#004681"/>
<ellipse cx="15.6" cy="25.1211" rx="8.77612" ry="8.77612" fill="#004681"/>
<ellipse cx="14.7224" cy="27.754" rx="8.77612" ry="8.77612" fill="#004681"/>
<ellipse cx="8.77612" cy="8.77612" rx="8.77612" ry="8.77612" transform="matrix(-1 0 0 1 41.0507 19.8555)" fill="#004681"/>
<ellipse cx="8.77612" cy="8.77612" rx="8.77612" ry="8.77612" transform="matrix(-1 0 0 1 39.2955 13.7123)" fill="#004681"/>
<ellipse cx="8.77612" cy="8.77612" rx="8.77612" ry="8.77612" transform="matrix(-1 0 0 1 40.1731 16.345)" fill="#004681"/>
<ellipse cx="8.77612" cy="8.77612" rx="8.77612" ry="8.77612" transform="matrix(-1 0 0 1 41.0507 18.9779)" fill="#004681"/>
<ellipse cx="7.02089" cy="7.0209" rx="7.02089" ry="7.0209" transform="matrix(-1 0 0 1 39.2955 21.6106)" fill="#F6F5FA"/>
<ellipse cx="14.7224" cy="28.6315" rx="7.02089" ry="7.0209" fill="#F6F5FA"/>
</svg>
