<svg viewBox="0 0 32 32" fill="none" xmlns="http://www.w3.org/2000/svg">
<path fill-rule="evenodd" clip-rule="evenodd" d="M16 2C23.732 2 30 8.26801 30 16C30 23.732 23.732 30 16 30C8.26801 30 2 23.732 2 16C2 8.26801 8.26801 2 16 2ZM14.0303 4.50781C12.9257 4.50781 12.0303 5.40324 12.0303 6.50781V23.4033C12.0303 23.5077 12.0402 23.6099 12.0557 23.71C12.0389 23.8541 12.0303 24.0008 12.0303 24.1494C12.0304 26.2266 13.7138 27.9101 15.791 27.9102C17.8682 27.9102 19.5517 26.2266 19.5518 24.1494C19.5518 24.0007 19.5422 23.8541 19.5254 23.71C19.5408 23.6098 19.5517 23.5078 19.5518 23.4033V6.50781C19.5518 5.40324 18.6563 4.50781 17.5518 4.50781H14.0303Z" fill="currentColor"/>
<path d="M15.791 25.403C15.5602 25.403 15.3731 25.2159 15.3731 24.9851V6.59701C15.3731 6.36621 15.5602 6.1791 15.791 6.1791C16.0219 6.1791 16.209 6.36621 16.209 6.59701V24.9851C16.209 25.2159 16.0219 25.403 15.791 25.403Z" fill="currentColor"/>
<path d="M16.6269 12.0299C16.8577 12.0299 17.0448 11.8427 17.0448 11.6119C17.0448 11.3811 16.8577 11.194 16.6269 11.194H14.9552C14.7244 11.194 14.5373 11.3811 14.5373 11.6119C14.5373 11.8427 14.7244 12.0299 14.9552 12.0299H16.6269Z" fill="currentColor"/>
<path d="M16.6269 14.5373C16.8577 14.5373 17.0448 14.3502 17.0448 14.1194C17.0448 13.8886 16.8577 13.7015 16.6269 13.7015H14.9552C14.7244 13.7015 14.5373 13.8886 14.5373 14.1194C14.5373 14.3502 14.7244 14.5373 14.9552 14.5373H16.6269Z" fill="currentColor"/>
<path d="M16.6269 19.5522C16.8577 19.5522 17.0448 19.3651 17.0448 19.1343C17.0448 18.9035 16.8577 18.7164 16.6269 18.7164H14.9552C14.7244 18.7164 14.5373 18.9035 14.5373 19.1343C14.5373 19.3651 14.7244 19.5522 14.9552 19.5522H16.6269Z" fill="currentColor"/>
<path d="M17.4627 22.0597C17.6935 22.0597 17.8806 21.8726 17.8806 21.6418C17.8806 21.411 17.6935 21.2239 17.4627 21.2239H14.1194C13.8886 21.2239 13.7015 21.411 13.7015 21.6418C13.7015 21.8726 13.8886 22.0597 14.1194 22.0597H17.4627Z" fill="currentColor"/>
<path d="M17.4627 9.52239C17.6935 9.52239 17.8806 9.33528 17.8806 9.10448C17.8806 8.87367 17.6935 8.68657 17.4627 8.68657H14.1194C13.8886 8.68657 13.7015 8.87367 13.7015 9.10448C13.7015 9.33528 13.8886 9.52239 14.1194 9.52239H17.4627Z" fill="currentColor"/>
<path d="M16.6269 17.0448C16.8577 17.0448 17.0448 16.8577 17.0448 16.6269C17.0448 16.3961 16.8577 16.209 16.6269 16.209H14.9552C14.7244 16.209 14.5373 16.3961 14.5373 16.6269C14.5373 16.8577 14.7244 17.0448 14.9552 17.0448H16.6269Z" fill="currentColor"/>
<path d="M17.0448 25.8209C17.0448 26.5133 16.4835 27.0746 15.791 27.0746C15.0986 27.0746 14.5373 26.5133 14.5373 25.8209C14.5373 25.1285 15.0986 24.5672 15.791 24.5672C16.4835 24.5672 17.0448 25.1285 17.0448 25.8209Z" fill="currentColor"/>
</svg>
